<mxfile host="app.diagrams.net" agent="Mozilla/5.0 (Windows NT 10.0; Win64; x64) AppleWebKit/537.36 (KHTML, like Gecko) Chrome/138.0.0.0 Safari/537.36 Edg/138.0.0.0" version="28.0.6">
  <diagram name="ИТ-ландшафт" id="IT-Landscape">
    <mxGraphModel dx="938" dy="606" grid="1" gridSize="10" guides="1" tooltips="1" connect="1" arrows="1" fold="1" page="1" pageScale="1" pageWidth="827" pageHeight="1169" background="#FFFFFF" math="0" shadow="0">
      <root>
        <mxCell id="0" />
        <mxCell id="1" parent="0" />
        <mxCell id="zakC0G_ph-_B8I5AU5l--1" value="" style="shape=table;startSize=0;container=1;collapsible=0;childLayout=tableLayout;" vertex="1" parent="1">
          <mxGeometry x="45" y="40" width="750" height="492" as="geometry" />
        </mxCell>
        <mxCell id="zakC0G_ph-_B8I5AU5l--2" value="" style="shape=tableRow;horizontal=0;startSize=0;swimlaneHead=0;swimlaneBody=0;strokeColor=inherit;top=0;left=0;bottom=0;right=0;collapsible=0;dropTarget=0;fillColor=none;points=[[0,0.5],[1,0.5]];portConstraint=eastwest;" vertex="1" parent="zakC0G_ph-_B8I5AU5l--1">
          <mxGeometry width="750" height="91" as="geometry" />
        </mxCell>
        <mxCell id="zakC0G_ph-_B8I5AU5l--3" value="" style="shape=partialRectangle;html=1;whiteSpace=wrap;connectable=0;strokeColor=inherit;overflow=hidden;fillColor=light-dark(transparent,#BBBBBB);top=0;left=0;bottom=0;right=0;pointerEvents=1;perimeterSpacing=1;labelBorderColor=light-dark(#000000,#040404);" vertex="1" parent="zakC0G_ph-_B8I5AU5l--2">
          <mxGeometry width="108" height="91" as="geometry">
            <mxRectangle width="108" height="91" as="alternateBounds" />
          </mxGeometry>
        </mxCell>
        <mxCell id="zakC0G_ph-_B8I5AU5l--4" value="Продажи в сети отделений" style="shape=partialRectangle;html=1;whiteSpace=wrap;connectable=0;strokeColor=inherit;overflow=hidden;fillColor=light-dark(transparent,#BBBBBB);top=0;left=0;bottom=0;right=0;pointerEvents=1;" vertex="1" parent="zakC0G_ph-_B8I5AU5l--2">
          <mxGeometry x="108" width="106" height="91" as="geometry">
            <mxRectangle width="106" height="91" as="alternateBounds" />
          </mxGeometry>
        </mxCell>
        <mxCell id="zakC0G_ph-_B8I5AU5l--5" value="&lt;div&gt;Продажи через&lt;/div&gt;&lt;div&gt;кол-центр&lt;/div&gt;" style="shape=partialRectangle;html=1;whiteSpace=wrap;connectable=0;strokeColor=inherit;overflow=hidden;fillColor=light-dark(transparent,#BBBBBB);top=0;left=0;bottom=0;right=0;pointerEvents=1;" vertex="1" parent="zakC0G_ph-_B8I5AU5l--2">
          <mxGeometry x="214" width="107" height="91" as="geometry">
            <mxRectangle width="107" height="91" as="alternateBounds" />
          </mxGeometry>
        </mxCell>
        <mxCell id="zakC0G_ph-_B8I5AU5l--6" value="&lt;div&gt;Digital-оповещения&lt;/div&gt;&lt;div&gt;клиентов&lt;/div&gt;" style="shape=partialRectangle;html=1;whiteSpace=wrap;connectable=0;strokeColor=inherit;overflow=hidden;fillColor=light-dark(transparent,#BBBBBB);top=0;left=0;bottom=0;right=0;pointerEvents=1;" vertex="1" parent="zakC0G_ph-_B8I5AU5l--2">
          <mxGeometry x="321" width="108" height="91" as="geometry">
            <mxRectangle width="108" height="91" as="alternateBounds" />
          </mxGeometry>
        </mxCell>
        <mxCell id="zakC0G_ph-_B8I5AU5l--7" value="Обслуживание депозитных процессов" style="shape=partialRectangle;html=1;whiteSpace=wrap;connectable=0;strokeColor=inherit;overflow=hidden;fillColor=light-dark(transparent,#BBBBBB);top=0;left=0;bottom=0;right=0;pointerEvents=1;" vertex="1" parent="zakC0G_ph-_B8I5AU5l--2">
          <mxGeometry x="429" width="107" height="91" as="geometry">
            <mxRectangle width="107" height="91" as="alternateBounds" />
          </mxGeometry>
        </mxCell>
        <mxCell id="zakC0G_ph-_B8I5AU5l--8" value="Обслуживание кредитных процессов" style="shape=partialRectangle;html=1;whiteSpace=wrap;connectable=0;strokeColor=inherit;overflow=hidden;fillColor=light-dark(transparent,#BBBBBB);top=0;left=0;bottom=0;right=0;pointerEvents=1;" vertex="1" parent="zakC0G_ph-_B8I5AU5l--2">
          <mxGeometry x="536" width="106" height="91" as="geometry">
            <mxRectangle width="106" height="91" as="alternateBounds" />
          </mxGeometry>
        </mxCell>
        <mxCell id="zakC0G_ph-_B8I5AU5l--9" value="Управление договорами" style="shape=partialRectangle;html=1;whiteSpace=wrap;connectable=0;strokeColor=inherit;overflow=hidden;fillColor=light-dark(transparent,#BBBBBB);top=0;left=0;bottom=0;right=0;pointerEvents=1;" vertex="1" parent="zakC0G_ph-_B8I5AU5l--2">
          <mxGeometry x="642" width="108" height="91" as="geometry">
            <mxRectangle width="108" height="91" as="alternateBounds" />
          </mxGeometry>
        </mxCell>
        <mxCell id="zakC0G_ph-_B8I5AU5l--18" value="" style="shape=tableRow;horizontal=0;startSize=0;swimlaneHead=0;swimlaneBody=0;strokeColor=inherit;top=0;left=0;bottom=0;right=0;collapsible=0;dropTarget=0;fillColor=none;points=[[0,0.5],[1,0.5]];portConstraint=eastwest;" vertex="1" parent="zakC0G_ph-_B8I5AU5l--1">
          <mxGeometry y="91" width="750" height="128" as="geometry" />
        </mxCell>
        <mxCell id="zakC0G_ph-_B8I5AU5l--19" value="Кол-центр" style="shape=partialRectangle;html=1;whiteSpace=wrap;connectable=0;strokeColor=inherit;overflow=hidden;fillColor=light-dark(transparent,#BBBBBB);top=0;left=0;bottom=0;right=0;pointerEvents=1;" vertex="1" parent="zakC0G_ph-_B8I5AU5l--18">
          <mxGeometry width="108" height="128" as="geometry">
            <mxRectangle width="108" height="128" as="alternateBounds" />
          </mxGeometry>
        </mxCell>
        <mxCell id="zakC0G_ph-_B8I5AU5l--20" value="" style="shape=partialRectangle;html=1;whiteSpace=wrap;connectable=0;strokeColor=inherit;overflow=hidden;fillColor=none;top=0;left=0;bottom=0;right=0;pointerEvents=1;" vertex="1" parent="zakC0G_ph-_B8I5AU5l--18">
          <mxGeometry x="108" width="106" height="128" as="geometry">
            <mxRectangle width="106" height="128" as="alternateBounds" />
          </mxGeometry>
        </mxCell>
        <mxCell id="zakC0G_ph-_B8I5AU5l--21" value="" style="shape=partialRectangle;html=1;whiteSpace=wrap;connectable=0;strokeColor=inherit;overflow=hidden;fillColor=none;top=0;left=0;bottom=0;right=0;pointerEvents=1;" vertex="1" parent="zakC0G_ph-_B8I5AU5l--18">
          <mxGeometry x="214" width="107" height="128" as="geometry">
            <mxRectangle width="107" height="128" as="alternateBounds" />
          </mxGeometry>
        </mxCell>
        <mxCell id="zakC0G_ph-_B8I5AU5l--22" value="" style="shape=partialRectangle;html=1;whiteSpace=wrap;connectable=0;strokeColor=inherit;overflow=hidden;fillColor=none;top=0;left=0;bottom=0;right=0;pointerEvents=1;" vertex="1" parent="zakC0G_ph-_B8I5AU5l--18">
          <mxGeometry x="321" width="108" height="128" as="geometry">
            <mxRectangle width="108" height="128" as="alternateBounds" />
          </mxGeometry>
        </mxCell>
        <mxCell id="zakC0G_ph-_B8I5AU5l--23" value="" style="shape=partialRectangle;html=1;whiteSpace=wrap;connectable=0;strokeColor=inherit;overflow=hidden;fillColor=none;top=0;left=0;bottom=0;right=0;pointerEvents=1;" vertex="1" parent="zakC0G_ph-_B8I5AU5l--18">
          <mxGeometry x="429" width="107" height="128" as="geometry">
            <mxRectangle width="107" height="128" as="alternateBounds" />
          </mxGeometry>
        </mxCell>
        <mxCell id="zakC0G_ph-_B8I5AU5l--24" value="" style="shape=partialRectangle;html=1;whiteSpace=wrap;connectable=0;strokeColor=inherit;overflow=hidden;fillColor=none;top=0;left=0;bottom=0;right=0;pointerEvents=1;" vertex="1" parent="zakC0G_ph-_B8I5AU5l--18">
          <mxGeometry x="536" width="106" height="128" as="geometry">
            <mxRectangle width="106" height="128" as="alternateBounds" />
          </mxGeometry>
        </mxCell>
        <mxCell id="zakC0G_ph-_B8I5AU5l--25" value="" style="shape=partialRectangle;html=1;whiteSpace=wrap;connectable=0;strokeColor=inherit;overflow=hidden;fillColor=none;top=0;left=0;bottom=0;right=0;pointerEvents=1;" vertex="1" parent="zakC0G_ph-_B8I5AU5l--18">
          <mxGeometry x="642" width="108" height="128" as="geometry">
            <mxRectangle width="108" height="128" as="alternateBounds" />
          </mxGeometry>
        </mxCell>
        <mxCell id="zakC0G_ph-_B8I5AU5l--34" value="" style="shape=tableRow;horizontal=0;startSize=0;swimlaneHead=0;swimlaneBody=0;strokeColor=inherit;top=0;left=0;bottom=0;right=0;collapsible=0;dropTarget=0;fillColor=none;points=[[0,0.5],[1,0.5]];portConstraint=eastwest;" vertex="1" parent="zakC0G_ph-_B8I5AU5l--1">
          <mxGeometry y="219" width="750" height="91" as="geometry" />
        </mxCell>
        <mxCell id="zakC0G_ph-_B8I5AU5l--35" value="Управление обслуживанием депозитных продуктов" style="shape=partialRectangle;html=1;whiteSpace=wrap;connectable=0;strokeColor=inherit;overflow=hidden;fillColor=light-dark(transparent,#BBBBBB);top=0;left=0;bottom=0;right=0;pointerEvents=1;" vertex="1" parent="zakC0G_ph-_B8I5AU5l--34">
          <mxGeometry width="108" height="91" as="geometry">
            <mxRectangle width="108" height="91" as="alternateBounds" />
          </mxGeometry>
        </mxCell>
        <mxCell id="zakC0G_ph-_B8I5AU5l--36" value="" style="shape=partialRectangle;html=1;whiteSpace=wrap;connectable=0;strokeColor=inherit;overflow=hidden;fillColor=none;top=0;left=0;bottom=0;right=0;pointerEvents=1;" vertex="1" parent="zakC0G_ph-_B8I5AU5l--34">
          <mxGeometry x="108" width="106" height="91" as="geometry">
            <mxRectangle width="106" height="91" as="alternateBounds" />
          </mxGeometry>
        </mxCell>
        <mxCell id="zakC0G_ph-_B8I5AU5l--37" value="" style="shape=partialRectangle;html=1;whiteSpace=wrap;connectable=0;strokeColor=inherit;overflow=hidden;fillColor=none;top=0;left=0;bottom=0;right=0;pointerEvents=1;" vertex="1" parent="zakC0G_ph-_B8I5AU5l--34">
          <mxGeometry x="214" width="107" height="91" as="geometry">
            <mxRectangle width="107" height="91" as="alternateBounds" />
          </mxGeometry>
        </mxCell>
        <mxCell id="zakC0G_ph-_B8I5AU5l--38" value="" style="shape=partialRectangle;html=1;whiteSpace=wrap;connectable=0;strokeColor=inherit;overflow=hidden;fillColor=none;top=0;left=0;bottom=0;right=0;pointerEvents=1;" vertex="1" parent="zakC0G_ph-_B8I5AU5l--34">
          <mxGeometry x="321" width="108" height="91" as="geometry">
            <mxRectangle width="108" height="91" as="alternateBounds" />
          </mxGeometry>
        </mxCell>
        <mxCell id="zakC0G_ph-_B8I5AU5l--39" value="" style="shape=partialRectangle;html=1;whiteSpace=wrap;connectable=0;strokeColor=inherit;overflow=hidden;fillColor=none;top=0;left=0;bottom=0;right=0;pointerEvents=1;" vertex="1" parent="zakC0G_ph-_B8I5AU5l--34">
          <mxGeometry x="429" width="107" height="91" as="geometry">
            <mxRectangle width="107" height="91" as="alternateBounds" />
          </mxGeometry>
        </mxCell>
        <mxCell id="zakC0G_ph-_B8I5AU5l--40" value="" style="shape=partialRectangle;html=1;whiteSpace=wrap;connectable=0;strokeColor=inherit;overflow=hidden;fillColor=none;top=0;left=0;bottom=0;right=0;pointerEvents=1;" vertex="1" parent="zakC0G_ph-_B8I5AU5l--34">
          <mxGeometry x="536" width="106" height="91" as="geometry">
            <mxRectangle width="106" height="91" as="alternateBounds" />
          </mxGeometry>
        </mxCell>
        <mxCell id="zakC0G_ph-_B8I5AU5l--41" value="&lt;span style=&quot;color: rgba(0, 0, 0, 0); font-family: monospace; font-size: 0px; text-align: start; text-wrap-mode: nowrap;&quot;&gt;%3CmxGraphModel%3E%3Croot%3E%3CmxCell%20id%3D%220%22%2F%3E%3CmxCell%20id%3D%221%22%20parent%3D%220%22%2F%3E%3CmxCell%20id%3D%222%22%20value%3D%22%26lt%3Bspan%20style%3D%26quot%3Bfont-size%3A%2014px%3B%26quot%3B%26gt%3B%D0%90%D0%91%D0%A1%26lt%3B%2Fspan%26gt%3B%22%20style%3D%22rounded%3D1%3BwhiteSpace%3Dwrap%3Bhtml%3D1%3BfillColor%3D%23dae8fc%3BgradientColor%3D%237ea6e0%3BstrokeColor%3D%236c8ebf%3B%22%20vertex%3D%221%22%20parent%3D%221%22%3E%3CmxGeometry%20x%3D%22490%22%20y%3D%22420%22%20width%3D%2290%22%20height%3D%2230%22%20as%3D%22geometry%22%2F%3E%3C%2FmxCell%3E%3C%2Froot%3E%3C%2FmxGraphModel%3E&lt;/span&gt;&lt;span style=&quot;color: rgba(0, 0, 0, 0); font-family: monospace; font-size: 0px; text-align: start; text-wrap-mode: nowrap;&quot;&gt;%3CmxGraphModel%3E%3Croot%3E%3CmxCell%20id%3D%220%22%2F%3E%3CmxCell%20id%3D%221%22%20parent%3D%220%22%2F%3E%3CmxCell%20id%3D%222%22%20value%3D%22%26lt%3Bspan%20style%3D%26quot%3Bfont-size%3A%2014px%3B%26quot%3B%26gt%3B%D0%90%D0%91%D0%A1%26lt%3B%2Fspan%26gt%3B%22%20style%3D%22rounded%3D1%3BwhiteSpace%3Dwrap%3Bhtml%3D1%3BfillColor%3D%23dae8fc%3BgradientColor%3D%237ea6e0%3BstrokeColor%3D%236c8ebf%3B%22%20vertex%3D%221%22%20parent%3D%221%22%3E%3CmxGeometry%20x%3D%22490%22%20y%3D%22420%22%20width%3D%2290%22%20height%3D%2230%22%20as%3D%22geometry%22%2F%3E%3C%2FmxCell%3E%3C%2Froot%3E%3C%2FmxGraphModel%3E&lt;/span&gt;" style="shape=partialRectangle;html=1;whiteSpace=wrap;connectable=0;strokeColor=inherit;overflow=hidden;fillColor=none;top=0;left=0;bottom=0;right=0;pointerEvents=1;" vertex="1" parent="zakC0G_ph-_B8I5AU5l--34">
          <mxGeometry x="642" width="108" height="91" as="geometry">
            <mxRectangle width="108" height="91" as="alternateBounds" />
          </mxGeometry>
        </mxCell>
        <mxCell id="zakC0G_ph-_B8I5AU5l--42" value="" style="shape=tableRow;horizontal=0;startSize=0;swimlaneHead=0;swimlaneBody=0;strokeColor=inherit;top=0;left=0;bottom=0;right=0;collapsible=0;dropTarget=0;fillColor=none;points=[[0,0.5],[1,0.5]];portConstraint=eastwest;" vertex="1" parent="zakC0G_ph-_B8I5AU5l--1">
          <mxGeometry y="310" width="750" height="91" as="geometry" />
        </mxCell>
        <mxCell id="zakC0G_ph-_B8I5AU5l--43" value="Управление обслуживанием кредитных продуктов" style="shape=partialRectangle;html=1;whiteSpace=wrap;connectable=0;strokeColor=inherit;overflow=hidden;fillColor=light-dark(transparent,#BBBBBB);top=0;left=0;bottom=0;right=0;pointerEvents=1;" vertex="1" parent="zakC0G_ph-_B8I5AU5l--42">
          <mxGeometry width="108" height="91" as="geometry">
            <mxRectangle width="108" height="91" as="alternateBounds" />
          </mxGeometry>
        </mxCell>
        <mxCell id="zakC0G_ph-_B8I5AU5l--44" value="" style="shape=partialRectangle;html=1;whiteSpace=wrap;connectable=0;strokeColor=inherit;overflow=hidden;fillColor=none;top=0;left=0;bottom=0;right=0;pointerEvents=1;" vertex="1" parent="zakC0G_ph-_B8I5AU5l--42">
          <mxGeometry x="108" width="106" height="91" as="geometry">
            <mxRectangle width="106" height="91" as="alternateBounds" />
          </mxGeometry>
        </mxCell>
        <mxCell id="zakC0G_ph-_B8I5AU5l--45" value="" style="shape=partialRectangle;html=1;whiteSpace=wrap;connectable=0;strokeColor=inherit;overflow=hidden;fillColor=none;top=0;left=0;bottom=0;right=0;pointerEvents=1;" vertex="1" parent="zakC0G_ph-_B8I5AU5l--42">
          <mxGeometry x="214" width="107" height="91" as="geometry">
            <mxRectangle width="107" height="91" as="alternateBounds" />
          </mxGeometry>
        </mxCell>
        <mxCell id="zakC0G_ph-_B8I5AU5l--46" value="" style="shape=partialRectangle;html=1;whiteSpace=wrap;connectable=0;strokeColor=inherit;overflow=hidden;fillColor=none;top=0;left=0;bottom=0;right=0;pointerEvents=1;" vertex="1" parent="zakC0G_ph-_B8I5AU5l--42">
          <mxGeometry x="321" width="108" height="91" as="geometry">
            <mxRectangle width="108" height="91" as="alternateBounds" />
          </mxGeometry>
        </mxCell>
        <mxCell id="zakC0G_ph-_B8I5AU5l--47" value="&lt;span style=&quot;color: rgba(0, 0, 0, 0); font-family: monospace; font-size: 0px; text-align: start; text-wrap-mode: nowrap;&quot;&gt;%3CmxGraphModel%3E%3Croot%3E%3CmxCell%20id%3D%220%22%2F%3E%3CmxCell%20id%3D%221%22%20parent%3D%220%22%2F%3E%3CmxCell%20id%3D%222%22%20value%3D%22%26lt%3Bspan%20style%3D%26quot%3Bfont-size%3A%2014px%3B%26quot%3B%26gt%3B%D0%90%D0%91%D0%A1%26lt%3B%2Fspan%26gt%3B%22%20style%3D%22rounded%3D1%3BwhiteSpace%3Dwrap%3Bhtml%3D1%3BfillColor%3D%23dae8fc%3BgradientColor%3D%237ea6e0%3BstrokeColor%3D%236c8ebf%3B%22%20vertex%3D%221%22%20parent%3D%221%22%3E%3CmxGeometry%20x%3D%221040%22%20y%3D%22420%22%20width%3D%2290%22%20height%3D%2230%22%20as%3D%22geometry%22%2F%3E%3C%2FmxCell%3E%3CmxCell%20id%3D%223%22%20value%3D%22%26lt%3Bspan%20style%3D%26quot%3Bfont-size%3A%2014px%3B%26quot%3B%26gt%3BExcel%26lt%3B%2Fspan%26gt%3B%22%20style%3D%22rounded%3D1%3BwhiteSpace%3Dwrap%3Bhtml%3D1%3BfillColor%3D%23d5e8d4%3BgradientColor%3D%2397d077%3BstrokeColor%3D%2382b366%3B%22%20vertex%3D%221%22%20parent%3D%221%22%3E%3CmxGeometry%20x%3D%221040%22%20y%3D%22450%22%20width%3D%2290%22%20height%3D%2230%22%20as%3D%22geometry%22%2F%3E%3C%2FmxCell%3E%3C%2Froot%3E%3C%2FmxGraphModel%3E&lt;/span&gt;" style="shape=partialRectangle;html=1;whiteSpace=wrap;connectable=0;strokeColor=inherit;overflow=hidden;fillColor=none;top=0;left=0;bottom=0;right=0;pointerEvents=1;" vertex="1" parent="zakC0G_ph-_B8I5AU5l--42">
          <mxGeometry x="429" width="107" height="91" as="geometry">
            <mxRectangle width="107" height="91" as="alternateBounds" />
          </mxGeometry>
        </mxCell>
        <mxCell id="zakC0G_ph-_B8I5AU5l--48" value="&lt;span style=&quot;color: rgba(0, 0, 0, 0); font-family: monospace; font-size: 0px; text-align: start; text-wrap-mode: nowrap;&quot;&gt;%3CmxGraphModel%3E%3Croot%3E%3CmxCell%20id%3D%220%22%2F%3E%3CmxCell%20id%3D%221%22%20parent%3D%220%22%2F%3E%3CmxCell%20id%3D%222%22%20value%3D%22%26lt%3Bspan%20style%3D%26quot%3Bfont-size%3A%2014px%3B%26quot%3B%26gt%3B%D0%90%D0%91%D0%A1%26lt%3B%2Fspan%26gt%3B%22%20style%3D%22rounded%3D1%3BwhiteSpace%3Dwrap%3Bhtml%3D1%3BfillColor%3D%23dae8fc%3BgradientColor%3D%237ea6e0%3BstrokeColor%3D%236c8ebf%3B%22%20vertex%3D%221%22%20parent%3D%221%22%3E%3CmxGeometry%20x%3D%22490%22%20y%3D%22420%22%20width%3D%2290%22%20height%3D%2230%22%20as%3D%22geometry%22%2F%3E%3C%2FmxCell%3E%3C%2Froot%3E%3C%2FmxGraphModel%3E&lt;/span&gt;" style="shape=partialRectangle;html=1;whiteSpace=wrap;connectable=0;strokeColor=inherit;overflow=hidden;fillColor=none;top=0;left=0;bottom=0;right=0;pointerEvents=1;" vertex="1" parent="zakC0G_ph-_B8I5AU5l--42">
          <mxGeometry x="536" width="106" height="91" as="geometry">
            <mxRectangle width="106" height="91" as="alternateBounds" />
          </mxGeometry>
        </mxCell>
        <mxCell id="zakC0G_ph-_B8I5AU5l--49" value="" style="shape=partialRectangle;html=1;whiteSpace=wrap;connectable=0;strokeColor=inherit;overflow=hidden;fillColor=none;top=0;left=0;bottom=0;right=0;pointerEvents=1;" vertex="1" parent="zakC0G_ph-_B8I5AU5l--42">
          <mxGeometry x="642" width="108" height="91" as="geometry">
            <mxRectangle width="108" height="91" as="alternateBounds" />
          </mxGeometry>
        </mxCell>
        <mxCell id="zakC0G_ph-_B8I5AU5l--50" value="" style="shape=tableRow;horizontal=0;startSize=0;swimlaneHead=0;swimlaneBody=0;strokeColor=inherit;top=0;left=0;bottom=0;right=0;collapsible=0;dropTarget=0;fillColor=none;points=[[0,0.5],[1,0.5]];portConstraint=eastwest;" vertex="1" parent="zakC0G_ph-_B8I5AU5l--1">
          <mxGeometry y="401" width="750" height="91" as="geometry" />
        </mxCell>
        <mxCell id="zakC0G_ph-_B8I5AU5l--51" value="Управление обслуживанием в сети отделений" style="shape=partialRectangle;html=1;whiteSpace=wrap;connectable=0;strokeColor=inherit;overflow=hidden;fillColor=light-dark(transparent,#BBBBBB);top=0;left=0;bottom=0;right=0;pointerEvents=1;" vertex="1" parent="zakC0G_ph-_B8I5AU5l--50">
          <mxGeometry width="108" height="91" as="geometry">
            <mxRectangle width="108" height="91" as="alternateBounds" />
          </mxGeometry>
        </mxCell>
        <mxCell id="zakC0G_ph-_B8I5AU5l--52" value="&lt;span style=&quot;color: rgba(0, 0, 0, 0); font-family: monospace; font-size: 0px; text-align: start; text-wrap-mode: nowrap;&quot;&gt;%3CmxGraphModel%3E%3Croot%3E%3CmxCell%20id%3D%220%22%2F%3E%3CmxCell%20id%3D%221%22%20parent%3D%220%22%2F%3E%3CmxCell%20id%3D%222%22%20value%3D%22%26lt%3Bspan%20style%3D%26quot%3Bfont-size%3A%2014px%3B%26quot%3B%26gt%3B%D0%90%D0%91%D0%A1%26lt%3B%2Fspan%26gt%3B%22%20style%3D%22rounded%3D1%3BwhiteSpace%3Dwrap%3Bhtml%3D1%3BfillColor%3D%23dae8fc%3BgradientColor%3D%237ea6e0%3BstrokeColor%3D%236c8ebf%3B%22%20vertex%3D%221%22%20parent%3D%221%22%3E%3CmxGeometry%20x%3D%22490%22%20y%3D%22420%22%20width%3D%2290%22%20height%3D%2230%22%20as%3D%22geometry%22%2F%3E%3C%2FmxCell%3E%3C%2Froot%3E%3C%2FmxGraphModel%3E&lt;/span&gt;" style="shape=partialRectangle;html=1;whiteSpace=wrap;connectable=0;strokeColor=inherit;overflow=hidden;fillColor=none;top=0;left=0;bottom=0;right=0;pointerEvents=1;" vertex="1" parent="zakC0G_ph-_B8I5AU5l--50">
          <mxGeometry x="108" width="106" height="91" as="geometry">
            <mxRectangle width="106" height="91" as="alternateBounds" />
          </mxGeometry>
        </mxCell>
        <mxCell id="zakC0G_ph-_B8I5AU5l--53" value="" style="shape=partialRectangle;html=1;whiteSpace=wrap;connectable=0;strokeColor=inherit;overflow=hidden;fillColor=none;top=0;left=0;bottom=0;right=0;pointerEvents=1;" vertex="1" parent="zakC0G_ph-_B8I5AU5l--50">
          <mxGeometry x="214" width="107" height="91" as="geometry">
            <mxRectangle width="107" height="91" as="alternateBounds" />
          </mxGeometry>
        </mxCell>
        <mxCell id="zakC0G_ph-_B8I5AU5l--54" value="" style="shape=partialRectangle;html=1;whiteSpace=wrap;connectable=0;strokeColor=inherit;overflow=hidden;fillColor=none;top=0;left=0;bottom=0;right=0;pointerEvents=1;" vertex="1" parent="zakC0G_ph-_B8I5AU5l--50">
          <mxGeometry x="321" width="108" height="91" as="geometry">
            <mxRectangle width="108" height="91" as="alternateBounds" />
          </mxGeometry>
        </mxCell>
        <mxCell id="zakC0G_ph-_B8I5AU5l--55" value="" style="shape=partialRectangle;html=1;whiteSpace=wrap;connectable=0;strokeColor=inherit;overflow=hidden;fillColor=none;top=0;left=0;bottom=0;right=0;pointerEvents=1;" vertex="1" parent="zakC0G_ph-_B8I5AU5l--50">
          <mxGeometry x="429" width="107" height="91" as="geometry">
            <mxRectangle width="107" height="91" as="alternateBounds" />
          </mxGeometry>
        </mxCell>
        <mxCell id="zakC0G_ph-_B8I5AU5l--56" value="" style="shape=partialRectangle;html=1;whiteSpace=wrap;connectable=0;strokeColor=inherit;overflow=hidden;fillColor=none;top=0;left=0;bottom=0;right=0;pointerEvents=1;" vertex="1" parent="zakC0G_ph-_B8I5AU5l--50">
          <mxGeometry x="536" width="106" height="91" as="geometry">
            <mxRectangle width="106" height="91" as="alternateBounds" />
          </mxGeometry>
        </mxCell>
        <mxCell id="zakC0G_ph-_B8I5AU5l--57" value="" style="shape=partialRectangle;html=1;whiteSpace=wrap;connectable=0;strokeColor=inherit;overflow=hidden;fillColor=none;top=0;left=0;bottom=0;right=0;pointerEvents=1;" vertex="1" parent="zakC0G_ph-_B8I5AU5l--50">
          <mxGeometry x="642" width="108" height="91" as="geometry">
            <mxRectangle width="108" height="91" as="alternateBounds" />
          </mxGeometry>
        </mxCell>
        <mxCell id="zakC0G_ph-_B8I5AU5l--63" value="&lt;span style=&quot;font-size: 14px;&quot;&gt;АБС&lt;/span&gt;" style="rounded=1;whiteSpace=wrap;html=1;fillColor=#dae8fc;gradientColor=#7ea6e0;strokeColor=#6c8ebf;" vertex="1" parent="1">
          <mxGeometry x="480" y="280" width="200" height="50" as="geometry" />
        </mxCell>
        <mxCell id="zakC0G_ph-_B8I5AU5l--64" value="&lt;span style=&quot;font-size: 14px;&quot;&gt;Excel&lt;/span&gt;" style="rounded=1;whiteSpace=wrap;html=1;fillColor=#d5e8d4;gradientColor=#97d077;strokeColor=#82b366;" vertex="1" parent="1">
          <mxGeometry x="480" y="330" width="200" height="50" as="geometry" />
        </mxCell>
        <mxCell id="zakC0G_ph-_B8I5AU5l--69" value="&lt;span style=&quot;font-size: 14px;&quot;&gt;АБС&lt;/span&gt;" style="rounded=1;whiteSpace=wrap;html=1;fillColor=#dae8fc;gradientColor=#7ea6e0;strokeColor=#6c8ebf;" vertex="1" parent="1">
          <mxGeometry x="700" y="280" width="90" height="240" as="geometry" />
        </mxCell>
        <mxCell id="zakC0G_ph-_B8I5AU5l--72" value="Система кол-центра" style="rounded=1;whiteSpace=wrap;html=1;fillColor=#f0a30a;strokeColor=#BD7000;fontColor=#000000;gradientColor=light-dark(#e0c200, #ededed);" vertex="1" parent="1">
          <mxGeometry x="270" y="140" width="90" height="30" as="geometry" />
        </mxCell>
        <mxCell id="zakC0G_ph-_B8I5AU5l--73" value="&lt;div&gt;Система партнёрского кол-центра&lt;/div&gt;" style="rounded=1;whiteSpace=wrap;html=1;fillColor=#76608a;strokeColor=#432D57;fontColor=#000000;gradientColor=#FF3399;" vertex="1" parent="1">
          <mxGeometry x="270" y="170" width="90" height="40" as="geometry" />
        </mxCell>
        <mxCell id="zakC0G_ph-_B8I5AU5l--74" value="&lt;span style=&quot;font-size: 14px;&quot;&gt;АБС&lt;/span&gt;" style="rounded=1;whiteSpace=wrap;html=1;fillColor=#dae8fc;gradientColor=#7ea6e0;strokeColor=#6c8ebf;" vertex="1" parent="1">
          <mxGeometry x="420" y="280" width="50" height="160" as="geometry" />
        </mxCell>
        <mxCell id="zakC0G_ph-_B8I5AU5l--77" value="&lt;span style=&quot;font-size: 14px;&quot;&gt;АБС&lt;/span&gt;" style="rounded=1;whiteSpace=wrap;html=1;fillColor=#dae8fc;gradientColor=#7ea6e0;strokeColor=#6c8ebf;" vertex="1" parent="1">
          <mxGeometry x="270" y="210" width="90" height="30" as="geometry" />
        </mxCell>
        <mxCell id="zakC0G_ph-_B8I5AU5l--80" value="&lt;span style=&quot;font-size: 14px;&quot;&gt;СМС шлюз&lt;/span&gt;" style="rounded=1;whiteSpace=wrap;html=1;fillColor=#fa6800;strokeColor=#C73500;fontColor=#000000;gradientColor=#FFF2CC;" vertex="1" parent="1">
          <mxGeometry x="375" y="280" width="45" height="160" as="geometry" />
        </mxCell>
        <mxCell id="zakC0G_ph-_B8I5AU5l--81" value="&lt;span style=&quot;font-size: 14px;&quot;&gt;Email&lt;/span&gt;" style="rounded=1;whiteSpace=wrap;html=1;fillColor=#99FFFF;gradientColor=#66B2FF;strokeColor=#82b366;" vertex="1" parent="1">
          <mxGeometry x="480" y="380" width="200" height="50" as="geometry" />
        </mxCell>
        <mxCell id="zakC0G_ph-_B8I5AU5l--83" value="&lt;span style=&quot;font-size: 14px;&quot;&gt;АБС&lt;/span&gt;" style="rounded=1;whiteSpace=wrap;html=1;fillColor=#dae8fc;gradientColor=#7ea6e0;strokeColor=#6c8ebf;" vertex="1" parent="1">
          <mxGeometry x="160" y="290" width="90" height="70" as="geometry" />
        </mxCell>
        <mxCell id="zakC0G_ph-_B8I5AU5l--84" value="&lt;span style=&quot;font-size: 14px;&quot;&gt;Excel&lt;/span&gt;" style="rounded=1;whiteSpace=wrap;html=1;fillColor=#d5e8d4;gradientColor=#97d077;strokeColor=#82b366;" vertex="1" parent="1">
          <mxGeometry x="160" y="360" width="90" height="80" as="geometry" />
        </mxCell>
        <mxCell id="zakC0G_ph-_B8I5AU5l--85" value="&lt;span style=&quot;font-size: 14px;&quot;&gt;Email&lt;/span&gt;" style="rounded=1;whiteSpace=wrap;html=1;fillColor=#99FFFF;gradientColor=#66B2FF;strokeColor=#82b366;" vertex="1" parent="1">
          <mxGeometry x="160" y="440" width="90" height="80" as="geometry" />
        </mxCell>
      </root>
    </mxGraphModel>
  </diagram>
</mxfile>
